<?xml version="1.0" encoding="utf-8"?>
<!-- Generator: Adobe Illustrator 12.0.0, SVG Export Plug-In . SVG Version: 6.00 Build 51448)  -->
<!DOCTYPE svg PUBLIC "-//W3C//DTD SVG 1.1//EN" "http://www.w3.org/Graphics/SVG/1.1/DTD/svg11.dtd" [
	<!ENTITY ns_svg "http://www.w3.org/2000/svg">
	<!ENTITY ns_xlink "http://www.w3.org/1999/xlink">
]>
<svg  version="1.1" id="Layer_1" xmlns="&ns_svg;" xmlns:xlink="&ns_xlink;" width="1090" height="535"
	 viewBox="-206.5 -97 1090 535" overflow="visible" enable-background="new -206.5 -97 1090 535" xml:space="preserve">
<path d="M582.07,99.919c0.938-3.134,1.879-6.341,1.879-6.341S582.985,96.329,582.07,99.919z"/>
<g>
	<path fill="#FFC800" d="M878.909,148.238c-35.939,0-141.124,40.977-141.124,40.977c11.395-24.988,18.406-24.988,26.298-33.98
		c7.888-8.995,0.873-16.993-0.877-20.99c-1.754-3.997-5.261-16.989-8.768-24.986c-3.504-7.996-6.136-21.987-11.397-23.988
		c-5.258-1.999-30.675,3.997-47.331,12.993c-11.452,6.185-9.223-10.793-6.715-21.999c-2.341,8.889-4.68,17.345,2.335-11.983
		c10.52-43.977-28.924-39.979-28.924-39.979c-46.458,0-116.582,33.982-116.582,33.982c4.383-49.975-22.79-74.959-29.8-75.958
		c-6.687-0.953-15.752,8.077-16.573,8.913c-3.442,3.111-2.634-2.17-2.074-6.488c0.314-2.439,1.796-7.121,2.024-9.573
		c0.094-1.031,1.979-3.425,4.1-8.896c2.784-7.194-2.467-19.747-9.311-27.819c-6.255-7.381-7.699-17.922-15.634-18.746
		c-13.593,0-29.872,6.89-42.709,11.349c-3.232,1-6.603,2.112-9.795,3.26c-3.19,1.147-6.197,2.333-8.71,3.476
		c-22.656,10.335-35.12,11.195-60.418,21.96c-28.383,12.076-16.489,7.319-60.292,32.867c6.046-17.222,11.333-16.36,12.843-34.443
		c0.278-3.334-0.82-17.556-3.274-20.955c-9.312-12.917-46.415,6.533-101.448,25.548c-3.525,1.218-22.289,0.93-25.677,2.582
		c-9.385,4.577-19.056,12.887-28.59,17.791c2.931-11.113,0.802-21.218-14.458-21.521c-30.208,2.44-42.329,7.577-67.213,17.94
		c-3.661,1.524-7.435,3.229-11.242,5.078C34.832-6.221,16.707,12.725-5.95,23.058c-18.125,8.609-31.719,27.555-38.04,49.938
		c-1.005,4.207-1.951,8.649-2.517,12.85c-1.692,12.605,0.054,23.054,14.879,19.017c6.129-1.668,13.226-3.727,20.243-6.255
		c1.319-0.074,2.545,0.091,3.169,0.803c1.763,2.008,0.756,4.306-6.544,10.621c-0.163,0.142-0.295,0.276-0.432,0.411
		c-11.716,9.086-26.323,13.007-37.582,24.563c-6.042,8.61-13.594,15.5-18.001,23.368c-2.592,3.72-5.136,7.442-7.676,11.161
		c-2.532,3.719-5.063,7.437-7.595,11.145c-4.026,5.886-7.536,12.312-7.233,19.745c-7.811,11.217-12.281,18.617-13.904,20.776
		c-5.26,6.996-0.878,31.982-0.878,31.982s7.889,11.992,14.025,26.984c6.136,14.993,21.913,9.999,28.926,9.999
		c7.012,0,5.258,7.995,5.258,7.995c-14.902,11.992-15.778,32.986-12.271,37.982c3.508,4.994,14.025,1,18.407,4.994
		c4.383,3.997,3.506,11.995,9.643,16.989c6.136,4.996,10.519,3.001,14.024,4.996c3.505,2-1.753,2.997,9.641,11.997
		c11.395,8.993,40.321-5.998,49.086-10.995c8.765-4.994,15.778-16.991,21.038-17.992c5.258-1,35.938-2.993,51.715-14.989
		c15.776-11.991,30.677-17.993,42.073-22.989c11.395-5.001,10.517,5.99,10.517,5.99c-14.902,12.996-26.296,43.98-26.296,43.98
		c-1.753,20.993,2.629,40.976,2.629,40.976s29.801,30.986,42.074,36.982c12.273,6,21.913-3.994,21.913-3.994
		s40.32-33.98,46.457-39.979c6.135-5.998,11.394-3.001,13.148,0c1.752,2.991,15.777,14.987,21.913,14.987
		c6.135,0,19.284-11.996,24.543-15.984c5.257-4.003,27.17-12.996,34.183-15.993c7.013-2.999,20.16-14.994,27.173-22.989
		c7.01-8,14.023-9.999,17.525-8c3.508,2,16.657,5.997,27.175,1c10.519-4.996,40.319-22.989,49.084-28.981
		c8.767-5.998,21.039-5.998,23.67-4.998c2.628,0.998,0.001,9.997-2.631,13.989c-2.63,3.999-19.285,18.992-18.409,24.993
		c0.877,5.992,14.904,14.989,20.162,16.986c5.259,2,11.395,13.996,25.42,13.996c14.022,0,33.307-17.993,42.069-24.99
		c8.769-6.994,29.802-14.994,36.815-19.988c7.015-4.994,15.777-10.997,20.164-15.987c4.38-5.002,15.777-13.997,21.037-13.997
		c5.261,0,15.774-5.995,15.774-5.995c42.072-29.984,176.182-66.963,185.822-67.961c9.644-0.998,28.049-1.999,35.064-11.992
		c7.013-9.999,6.137-30.983,6.137-36.983c0-5.999,9.639-19.991,15.776-26.987C888.549,149.235,878.909,148.238,878.909,148.238z"/>
	<path d="M868.136,131.521c-35.937,0-141.121,40.974-141.121,40.974c11.394-24.987,18.407-24.987,26.298-33.98
		c7.888-8.995,0.873-16.991-0.876-20.988c-1.755-3.998-5.262-16.993-8.768-24.988c-3.505-7.996-6.138-21.986-11.396-23.986
		c-5.259-1.999-30.681,3.996-47.334,12.992c-11.452,6.186-9.222-10.792-6.714-21.998c-2.34,8.888-4.682,17.345,2.338-11.984
		c10.517-43.977-28.929-39.979-28.929-39.979c-46.455,0-116.58,33.982-116.58,33.982c4.384-49.973-22.789-74.959-29.8-75.958
		c-6.687-0.953-15.752,8.078-16.572,8.912c-3.442,3.113-2.637-2.168-2.077-6.486c0.317-2.439,1.799-7.121,2.028-9.573
		c0.093-1.03,1.978-3.426,4.097-8.897c2.786-7.193-2.467-19.747-9.309-27.818c-6.256-7.379-7.699-17.921-15.635-18.744
		c-13.593,0-29.872,6.888-42.706,11.348c-3.234,1-6.605,2.111-9.797,3.26c-3.19,1.147-6.199,2.333-8.712,3.476
		c-22.656,10.334-35.117,11.196-60.417,21.96c-28.383,12.076-16.488,7.32-60.292,32.865c6.046-17.22,11.333-16.36,12.843-34.443
		c0.277-3.333-0.821-17.556-3.274-20.955c-9.312-12.916-46.415,6.533-101.447,25.548c-3.526,1.216-22.29,0.929-25.678,2.582
		c-9.385,4.577-19.056,12.887-28.59,17.79c2.932-11.111,0.801-21.217-14.458-21.521c-30.207,2.44-42.328,7.575-67.213,17.94
		c-3.661,1.524-7.435,3.229-11.242,5.077C24.061-22.94,5.935-3.996-16.721,6.338c-18.125,8.61-31.719,27.558-38.041,49.941
		c-1.004,4.206-1.95,8.648-2.516,12.848c-1.692,12.605,0.053,23.056,14.878,19.019c6.129-1.67,13.227-3.728,20.244-6.255
		c1.318-0.076,2.544,0.09,3.168,0.801c1.762,2.007,0.755,4.305-6.545,10.622c-0.162,0.141-0.294,0.276-0.431,0.411
		c-11.716,9.085-26.323,13.005-37.583,24.562c-6.041,8.612-13.593,15.5-18,23.369c-2.593,3.72-5.136,7.441-7.675,11.162
		c-2.534,3.717-5.065,7.436-7.596,11.143c-4.028,5.887-7.537,12.312-7.233,19.746c-7.81,11.216-12.281,18.62-13.904,20.775
		c-5.26,7-0.878,31.984-0.878,31.984s7.889,11.99,14.025,26.983c6.136,14.994,21.912,9.997,28.926,9.997
		c7.013,0,5.258,7.998,5.258,7.998c-14.9,11.992-15.778,32.981-12.272,37.982c3.508,4.99,14.027,0.997,18.408,4.99
		c4.383,4.001,3.505,11.996,9.643,16.993c6.135,4.996,10.519,2.997,14.024,4.996c3.505,1.998-1.753,2.997,9.642,11.996
		c11.394,8.996,40.32-5.998,49.084-10.996c8.765-4.995,15.777-16.991,21.038-17.99c5.258-0.998,35.938-2.992,51.714-14.992
		c15.777-11.992,30.677-17.99,42.073-22.986c11.396-5.001,10.518,5.99,10.518,5.99c-14.901,12.996-26.296,43.98-26.296,43.98
		c-1.754,20.991,2.63,40.978,2.63,40.978s29.799,30.984,42.073,36.979c12.272,6.004,21.912-3.993,21.912-3.993
		s40.32-33.981,46.456-39.978c6.136-5.998,11.395-3.001,13.148,0c1.751,2.991,15.778,14.985,21.914,14.985
		c6.135,0,19.283-11.994,24.543-15.987c5.258-3.998,27.17-12.994,34.183-15.989c7.013-3.001,20.161-14.993,27.172-22.99
		c7.01-7.998,14.025-9.997,17.527-7.998c3.506,2,16.655,5.994,27.175,1c10.518-4.997,40.319-22.991,49.084-28.981
		c8.766-5.998,21.039-5.998,23.668-4.996c2.628,0.997,0,9.995-2.629,13.989c-2.631,3.995-19.285,18.992-18.409,24.988
		c0.878,5.996,14.902,14.99,20.161,16.989c5.26,1.999,11.396,13.995,25.419,13.995c14.022,0,33.306-17.992,42.07-24.988
		c8.768-6.997,29.802-14.995,36.813-19.991c7.017-4.995,15.779-10.993,20.163-15.989c4.382-4.997,15.779-13.992,21.039-13.992
		c5.261,0,15.774-5.994,15.774-5.994c42.072-29.988,176.182-66.968,185.823-67.963c9.645-1,28.049-2.002,35.063-11.994
		c7.014-9.998,6.139-30.983,6.139-36.981c0-5.999,9.639-19.993,15.776-26.988C877.778,132.517,868.136,131.521,868.136,131.521z"/>
</g>
</svg>
