<?xml version="1.0" encoding="utf-8"?>
<!-- Generator: Adobe Illustrator 15.1.0, SVG Export Plug-In . SVG Version: 6.00 Build 0)  -->
<!DOCTYPE svg PUBLIC "-//W3C//DTD SVG 1.1//EN" "http://www.w3.org/Graphics/SVG/1.1/DTD/svg11.dtd">
<svg version="1.1" xmlns="http://www.w3.org/2000/svg" xmlns:xlink="http://www.w3.org/1999/xlink" x="0px" y="0px" width="1065px"
	 height="535px" viewBox="12.5 0 1065 535" enable-background="new 12.5 0 1065 535" xml:space="preserve">
<g id="Layer_1">
	<path d="M582.07,99.919c0.938-3.134,1.879-6.341,1.879-6.341S582.985,96.329,582.07,99.919z"/>
	<g>
		<path fill="#FFC800" d="M1071.98,245.237c-35.762,0-140.42,40.977-140.42,40.977c11.338-24.987,18.311-24.987,26.162-33.979
			c7.852-8.995,0.871-16.993-0.869-20.99c-1.748-3.997-5.232-16.989-8.73-24.986c-3.486-7.995-6.104-21.987-11.338-23.988
			c-5.234-1.999-30.518,3.997-47.1,12.994c-11.387,6.185-9.17-10.794-6.678-22c-2.326,8.889-4.66,17.346,2.322-11.982
			c10.469-43.978-28.779-39.979-28.779-39.979c-46.23,0-116.006,33.982-116.006,33.982c4.365-49.976-22.676-74.96-29.648-75.959
			c-6.65-0.953-15.674,8.077-16.494,8.913c-3.418,3.111-2.617-2.17-2.061-6.488c0.312-2.438,1.787-7.121,2.012-9.572
			c0.098-1.031,1.973-3.426,4.084-8.896c2.771-7.194-2.453-19.747-9.26-27.819c-6.23-7.381-7.666-17.922-15.566-18.746
			c-13.525,0-29.717,6.891-42.49,11.35c-3.213,1-6.572,2.112-9.746,3.26s-6.172,2.333-8.67,3.476
			c-22.541,10.336-34.943,11.195-60.119,21.961c-28.233,12.075-16.407,7.318-59.991,32.866
			c6.016-17.222,11.279-16.359,12.783-34.442c0.274-3.334-0.82-17.557-3.261-20.955c-9.267-12.917-46.181,6.533-100.938,25.548
			c-3.516,1.218-22.177,0.93-25.556,2.582c-9.335,4.577-18.955,12.887-28.448,17.791c2.92-11.113,0.801-21.218-14.384-21.521
			c-30.054,2.44-42.115,7.577-66.875,17.94c-3.643,1.524-7.398,3.229-11.187,5.078c-22.626,9.129-40.664,28.075-63.208,38.408
			c-18.037,8.609-31.562,27.555-37.851,49.938c-0.996,4.207-1.938,8.648-2.505,12.85c-1.685,12.605,0.054,23.055,14.805,19.018
			c6.099-1.668,13.164-3.728,20.142-6.255c1.312-0.074,2.533,0.091,3.153,0.803c1.758,2.008,0.753,4.306-6.508,10.621
			c-0.161,0.142-0.293,0.276-0.43,0.411c-11.66,9.086-26.196,13.007-37.398,24.562c-6.01,8.61-13.525,15.5-17.91,23.368
			c-2.578,3.72-5.112,7.442-7.637,11.161c-2.52,3.719-5.039,7.437-7.559,11.146c-4.004,5.885-7.5,12.312-7.197,19.744
			c-7.773,11.217-12.222,18.617-13.838,20.776c-5.229,6.996-0.869,31.981-0.869,31.981s7.846,11.992,13.955,26.984
			c6.104,14.993,21.802,9.999,28.779,9.999c6.978,0,5.234,7.995,5.234,7.995c-14.829,11.991-15.703,32.986-12.211,37.982
			c3.491,4.994,13.955,1,18.315,4.994c4.36,3.997,3.491,11.995,9.595,16.989c6.108,4.996,10.469,3.001,13.955,4.996
			c3.486,2-1.743,2.997,9.595,11.997c11.337,8.992,40.116-5.998,48.842-10.995c8.721-4.994,15.699-16.991,20.933-17.992
			c5.229-1,35.756-2.993,51.455-14.989c15.703-11.991,30.528-17.993,41.865-22.989c11.337-5.002,10.469,5.99,10.469,5.99
			c-14.834,12.996-26.172,43.98-26.172,43.98c-1.738,20.993,2.617,40.976,2.617,40.976s29.658,30.986,41.865,36.982
			c12.217,6,21.807-3.994,21.807-3.994s40.118-33.979,46.221-39.979c6.104-5.998,11.337-3.002,13.086,0
			c1.748,2.99,15.703,14.986,21.807,14.986c6.103,0,19.189-11.996,24.414-15.984c5.234-4.002,27.041-12.995,34.014-15.992
			c6.982-2.999,20.059-14.994,27.042-22.989c6.973-8,13.955-9.999,17.441-8c3.488,2,16.574,5.997,27.031,1
			c10.469-4.996,40.119-22.99,48.848-28.982c8.721-5.998,20.928-5.998,23.545-4.998c2.617,0.998,0,9.998-2.617,13.99
			c-2.617,3.999-19.189,18.992-18.311,24.993c0.869,5.992,14.826,14.989,20.059,16.986c5.234,2,11.338,13.996,25.293,13.996
			s33.146-17.993,41.855-24.99c8.732-6.994,29.658-14.994,36.631-19.988c6.982-4.994,15.703-10.997,20.068-15.987
			c4.355-5.002,15.705-13.998,20.938-13.998c5.225,0,15.693-5.994,15.693-5.994c41.855-29.984,175.305-66.964,184.893-67.961
			c9.6-0.998,27.912-1.999,34.893-11.992c6.973-9.999,6.104-30.983,6.104-36.983c0-5.998,9.59-19.99,15.705-26.986
			C1081.57,246.234,1071.98,245.237,1071.98,245.237z"/>
		<path d="M1061.258,228.521c-35.752,0-140.42,40.974-140.42,40.974c11.338-24.987,18.32-24.987,26.172-33.979
			c7.842-8.995,0.869-16.991-0.869-20.988c-1.748-3.998-5.244-16.993-8.73-24.988c-3.486-7.996-6.102-21.986-11.338-23.986
			c-5.234-1.999-30.527,3.996-47.1,12.992c-11.395,6.186-9.18-10.792-6.68-21.998c-2.334,8.888-4.656,17.345,2.324-11.984
			c10.469-43.978-28.789-39.979-28.789-39.979c-46.219,0-115.996,33.981-115.996,33.981c4.365-49.974-22.676-74.959-29.648-75.958
			c-6.66-0.953-15.674,8.078-16.494,8.912c-3.416,3.112-2.617-2.168-2.061-6.486c0.312-2.439,1.787-7.121,2.012-9.573
			c0.098-1.029,1.973-3.426,4.082-8.896c2.764-7.193-2.461-19.747-9.268-27.818C672.234,11.365,670.799,0.823,662.898,0
			c-13.525,0-29.727,6.888-42.49,11.348c-3.221,1-6.572,2.111-9.746,3.26c-3.182,1.147-6.17,2.333-8.672,3.477
			c-22.549,10.334-34.941,11.196-60.117,21.96c-28.243,12.076-16.407,7.32-59.991,32.865c6.015-17.22,11.279-16.36,12.783-34.443
			c0.274-3.333-0.82-17.556-3.261-20.955c-9.268-12.916-46.182,6.533-100.947,25.549c-3.506,1.216-22.178,0.929-25.547,2.582
			c-9.336,4.576-18.965,12.887-28.447,17.79c2.92-11.111,0.801-21.218-14.385-21.521c-30.058,2.44-42.118,7.575-66.879,17.94
			c-3.643,1.523-7.397,3.229-11.186,5.077c-22.627,9.131-40.664,28.074-63.208,38.408c-18.032,8.611-31.558,27.559-37.851,49.941
			c-1.001,4.206-1.939,8.648-2.505,12.849c-1.68,12.604,0.054,23.057,14.805,19.019c6.098-1.67,13.164-3.728,20.146-6.255
			c1.309-0.076,2.53,0.09,3.15,0.801c1.753,2.008,0.752,4.306-6.514,10.623c-0.161,0.141-0.293,0.275-0.425,0.411
			c-11.66,9.085-26.192,13.005-37.397,24.562c-6.01,8.612-13.525,15.5-17.91,23.369c-2.583,3.72-5.113,7.441-7.637,11.162
			c-2.524,3.717-5.039,7.436-7.559,11.143c-4.009,5.888-7.5,12.312-7.197,19.746c-7.773,11.216-12.222,18.62-13.833,20.774
			c-5.234,7-0.874,31.984-0.874,31.984s7.847,11.99,13.956,26.983c6.104,14.994,21.801,9.997,28.779,9.997
			c6.977,0,5.234,7.997,5.234,7.997c-14.829,11.992-15.703,32.981-12.212,37.982c3.492,4.99,13.955,0.997,18.315,4.99
			c4.36,4.001,3.487,11.997,9.595,16.994c6.104,4.995,10.469,2.997,13.956,4.995c3.486,1.998-1.744,2.998,9.594,11.996
			c11.338,8.996,40.117-5.998,48.837-10.996c8.721-4.994,15.698-16.99,20.933-17.99c5.234-0.998,35.762-2.992,51.459-14.992
			c15.698-11.991,30.522-17.989,41.86-22.985c11.338-5.002,10.469,5.989,10.469,5.989c-14.824,12.996-26.162,43.981-26.162,43.981
			c-1.748,20.991,2.617,40.978,2.617,40.978s29.649,30.984,41.856,36.979c12.216,6.004,21.806-3.993,21.806-3.993
			s40.117-33.98,46.221-39.979c6.113-5.998,11.348-3,13.086,0c1.748,2.991,15.703,14.985,21.807,14.985
			c6.103,0,19.189-11.994,24.423-15.987c5.225-3.998,27.031-12.994,34.014-15.988c6.973-3.002,20.059-14.993,27.034-22.99
			c6.971-7.999,13.953-9.998,17.441-7.999c3.484,2.001,16.57,5.995,27.039,1.001c10.461-4.998,40.117-22.992,48.838-28.981
			c8.721-5.998,20.939-5.998,23.545-4.996c2.617,0.996,0,9.994-2.605,13.988c-2.619,3.995-19.191,18.992-18.322,24.989
			c0.869,5.996,14.824,14.99,20.059,16.988c5.234,2,11.338,13.996,25.293,13.996s33.145-17.992,41.865-24.988
			c8.721-6.998,29.648-14.996,36.633-19.992c6.973-4.995,15.691-10.993,20.059-15.989c4.354-4.996,15.701-13.992,20.936-13.992
			c5.236,0,15.693-5.994,15.693-5.994c41.865-29.987,175.303-66.968,184.902-67.962c9.592-1,27.9-2.002,34.883-11.994
			c6.982-9.998,6.113-30.983,6.113-36.981c0-5.999,9.59-19.992,15.693-26.987C1070.857,229.517,1061.258,228.521,1061.258,228.521z"
			/>
	</g>
</g>
<g id="Layer_2" display="none">
	<rect x="225" y="27.5" display="inline" fill="#FFFF00" width="640" height="480"/>
</g>
</svg>
