<?xml version="1.0" encoding="utf-8"?>
<!-- Generator: Adobe Illustrator 12.0.0, SVG Export Plug-In . SVG Version: 6.00 Build 51448)  -->
<!DOCTYPE svg PUBLIC "-//W3C//DTD SVG 1.1//EN" "http://www.w3.org/Graphics/SVG/1.1/DTD/svg11.dtd" [
	<!ENTITY ns_svg "http://www.w3.org/2000/svg">
	<!ENTITY ns_xlink "http://www.w3.org/1999/xlink">
]>
<svg  version="1.1" id="Layer_1" xmlns="&ns_svg;" xmlns:xlink="&ns_xlink;" width="1434.958" height="540"
	 viewBox="0 0 1434.958 540" overflow="visible" enable-background="new 0 0 1434.958 540" xml:space="preserve">
<path fill="#FFBF00" d="M974.26,266.283c-37.183,0-97.022,29.505-97.022,29.505c11.791-26.035,19.044-26.035,27.207-35.403
	c8.161-9.372,0.903-17.703-0.909-21.871c-1.811-4.164-5.438-17.701-9.069-26.032c-3.625-8.331-6.349-22.908-11.79-24.992
	c-5.438-2.083-31.739,4.164-48.971,13.536c-11.85,6.445-9.542-11.246-6.946-22.918c-2.422,9.261-4.841,18.07,2.417-12.487
	c10.884-45.821-29.924-41.654-29.924-41.654c-48.067,0-120.614,35.406-120.614,35.406c4.533-52.069-23.581-78.099-30.831-79.142
	c-6.92-0.993-16.298,8.414-17.148,9.284c-3.56,3.243-2.725-2.257-2.148-6.757c0.33-2.541,1.862-7.418,2.098-9.977
	c0.098-1.07,2.047-3.565,4.239-9.267c2.882-7.494-3.537-19.574-10.619-27.986c-6.471-7.688-10.935-19.671-19.145-20.529
	c-14.064,0-26.948,7.176-40.229,11.822c-3.345,1.044-6.831,2.202-10.133,3.397c-3.302,1.196-6.412,2.431-9.014,3.624
	c-23.438,10.766-24.452,9.663-50.629,20.878c-29.362,12.583-20.132,6.697-65.45,33.313c6.254-17.941,4.682-12.903,6.247-31.746
	c0.285-3.472-0.849-16.292-3.389-19.833c-9.636-13.457-33.886,0.874-83.772,27.816c-3.646,1.269-46.01,24.321-49.515,26.043
	c-9.709,4.769-19.715,13.425-29.577,18.537c3.031-11.58,0.828-22.106-14.958-22.425c-31.252,2.544-43.793,7.895-69.537,18.693
	c-3.79,1.586-7.693,3.365-11.634,5.29c-23.528,9.514-42.281,29.25-65.721,40.019c-18.752,8.973-32.816,28.711-39.356,52.032
	c-1.038,4.381-2.018,9.013-2.604,13.386c-1.748,13.134,0.057,24.023,15.395,19.816c6.342-1.74,13.684-3.883,20.943-6.518
	c1.366-0.077,2.632,0.095,3.28,0.836c1.822,2.092,0.78,4.486-6.771,11.066c-0.168,0.146-0.305,0.286-0.445,0.428
	c-12.125,9.468-27.237,16.713-38.885,28.751c-6.251,8.972-17.822,19.079-22.382,27.277C20.861,323.402,14.409,335.756,12.729,338
	c-5.439,7.291-2.438,36.93,3.91,52.551c6.351,15.621,22.671,10.418,29.927,10.418c7.257,0,5.441,8.333,5.441,8.333
	c-15.416,12.497-16.326,34.364-12.697,39.573c3.628,5.201,14.511,1.04,19.044,5.201c4.535,4.166,3.626,4.31,9.975,9.516
	c6.348,5.203,10.885,3.123,14.511,5.203c3.626,2.082-1.814,3.124,9.975,12.498c11.789,9.375,80.122-29.16,85.563-30.199
	c5.44-1.041,37.183-3.117,53.504-15.619c16.324-12.495,31.739-10.556,43.529-15.768c11.79-5.206,10.882,6.246,10.882,6.246
	c-15.418,13.54-27.206,45.822-27.206,45.822c-1.815,21.871,3.708,33.694,3.708,33.694s30.832,26.282,43.529,32.531
	c12.698,6.253,22.672-4.163,22.672-4.163s40.722-33.403,47.072-39.652c6.348-6.247,11.791-3.125,13.603,0
	c1.816,3.115,16.323,14.616,22.672,14.616c6.348,0,19.951-11.501,25.393-15.657c5.438-4.167,15.096-13.538,22.352-16.662
	c7.255-3.127,20.858-15.621,28.112-23.95c7.253-8.336,14.513-10.421,18.135-8.336c3.629,2.08,17.231,6.243,28.114,1.04
	c10.881-5.205,41.714-23.954,50.782-30.197c9.069-6.244,21.768-6.244,24.486-5.201c2.72,1.037,0.002,10.412-2.719,14.57
	c-2.721,4.166-19.954,19.79-19.047,26.039c0.909,6.245,15.419,15.619,20.858,17.699c5.443,2.085,11.789,14.58,26.302,14.58
	c14.505,0,34.456-18.743,43.523-26.034c9.072-7.291,28.798-15.62,38.087-20.826c7.26-4.261,14.143-6.664,19.871-10.658
	c7.082-4.419,17.315-7.581,22.755-7.581c5.441,0,16.321-6.245,16.321-6.245c43.527-31.241,133.296-56.583,143.268-57.622
	c9.979-1.039,29.019-2.084,36.275-12.497c7.256-10.419,6.352-32.28,6.352-38.531c0-6.249,9.972-20.829,16.322-28.117
	C984.235,267.324,974.26,266.283,974.26,266.283z"/>
<path d="M964.361,251.283c-37.182,0-97.022,29.505-97.022,29.505c11.791-26.035,19.045-26.035,27.206-35.403
	c8.163-9.372,0.904-17.703-0.907-21.871c-1.812-4.164-5.438-17.701-9.07-26.032c-3.625-8.331-6.349-22.908-11.789-24.992
	c-5.439-2.083-31.74,4.164-48.971,13.536c-11.85,6.445-9.542-11.246-6.947-22.918c-2.421,9.261-4.841,18.07,2.417-12.487
	c10.885-45.821-29.923-41.654-29.923-41.654c-48.067,0-120.615,35.406-120.615,35.406c4.532-52.069-23.581-78.099-30.831-79.142
	c-6.92-0.993-16.298,8.414-17.146,9.284c-3.562,3.243-2.727-2.257-2.15-6.757c0.33-2.541,1.862-7.418,2.098-9.977
	c0.098-1.07,2.047-3.565,4.24-9.267c2.883-7.494-3.539-19.574-10.621-27.986C607.857,12.841,603.394,0.858,595.183,0
	c-14.063,0-26.947,7.176-40.227,11.822c-3.346,1.044-6.832,2.202-10.134,3.397c-3.3,1.196-6.412,2.431-9.013,3.624
	c-23.439,10.766-24.453,9.663-50.63,20.878c-29.363,12.583-20.132,6.697-65.45,33.313c6.255-17.941,4.682-12.903,6.247-31.746
	c0.285-3.472-0.848-16.292-3.388-19.833C412.952,8,388.703,22.331,338.816,49.273c-3.646,1.269-46.009,24.321-49.515,26.043
	c-9.709,4.769-19.715,13.425-29.577,18.537c3.031-11.58,0.828-22.106-14.959-22.425c-31.252,2.544-43.792,7.895-69.536,18.693
	c-3.79,1.586-7.693,3.365-11.634,5.29c-23.529,9.514-42.282,29.25-65.722,40.019c-18.752,8.973-32.816,28.711-39.355,52.032
	c-1.038,4.381-2.017,9.013-2.604,13.386c-1.749,13.134,0.056,24.023,15.395,19.816c6.342-1.74,13.684-3.883,20.943-6.518
	c1.367-0.077,2.633,0.095,3.281,0.836c1.822,2.092,0.78,4.486-6.772,11.066c-0.169,0.146-0.305,0.286-0.446,0.428
	c-12.124,9.468-27.235,16.713-38.884,28.751c-6.251,8.973-17.823,19.079-22.382,27.277C10.962,308.402,4.51,320.756,2.83,323
	c-5.439,7.291-2.438,36.93,3.911,52.551c6.35,15.621,22.671,10.418,29.926,10.418c7.257,0,5.441,8.333,5.441,8.333
	c-15.416,12.497-16.325,34.364-12.696,39.573c3.628,5.201,14.51,1.04,19.044,5.201c4.535,4.166,3.626,4.31,9.975,9.516
	c6.348,5.203,10.885,3.123,14.512,5.203c3.626,2.082-1.814,3.124,9.975,12.498c11.788,9.375,80.121-29.16,85.563-30.199
	c5.44-1.041,37.183-3.117,53.503-15.619c16.325-12.495,31.74-10.556,43.529-15.768c11.79-5.206,10.882,6.246,10.882,6.246
	c-15.418,13.54-27.207,45.822-27.207,45.822c-1.815,21.871,3.708,33.694,3.708,33.694s30.833,26.282,43.53,32.531
	c12.698,6.253,22.672-4.163,22.672-4.163s40.723-33.403,47.072-39.652c6.348-6.247,11.791-3.125,13.604,0
	c1.815,3.115,16.322,14.616,22.672,14.616c6.348,0,19.951-11.501,25.394-15.657c5.438-4.167,15.096-13.538,22.352-16.662
	c7.255-3.127,20.857-15.621,28.111-23.95c7.253-8.336,14.513-10.421,18.135-8.336c3.629,2.08,17.231,6.243,28.113,1.04
	c10.883-5.205,41.715-23.954,50.783-30.197c9.071-6.244,21.767-6.244,24.485-5.201c2.721,1.037,0.002,10.412-2.719,14.57
	c-2.72,4.166-19.952,19.79-19.045,26.039c0.907,6.245,15.418,15.619,20.857,17.699c5.443,2.085,11.789,14.58,26.302,14.58
	c14.507,0,34.456-18.743,43.523-26.034c9.074-7.291,27.71-15.08,38.087-20.826c7.26-3.366,13.264-7.552,19.871-10.658
	c5.826-3.9,17.317-7.581,22.754-7.581c5.443,0,16.322-6.245,16.322-6.245c43.528-31.241,133.297-56.583,143.268-57.622
	c9.979-1.039,29.019-2.084,36.276-12.497c7.256-10.419,6.351-32.28,6.351-38.531c0-6.249,9.973-20.83,16.322-28.117
	C974.335,252.324,964.361,251.283,964.361,251.283z"/>
<image width="187" height="270" xlink:href="B6DD9655.jpg"  transform="matrix(1 0 0 1 1247.9585 169.4985)">
</image>
</svg>
